<svg width="22" height="22" viewBox="0 0 20 20" fill="none" xmlns="http://www.w3.org/2000/svg">
<path d="M1.83837 17.5829H18.1616C19.1753 17.5829 20 16.7581 20 15.7444V4.25593C20 3.24216 19.1753 2.41748 18.1616 2.41748H1.83837C0.82468 2.41748 0 3.24224 0 4.25593V15.7444C0 16.7581 0.82468 17.5829 1.83837 17.5829ZM1.19727 4.25593C1.19727 3.90186 1.48469 3.61475 1.83837 3.61475H18.1616C18.5155 3.61475 18.8027 3.90186 18.8027 4.25593V15.7444C18.8027 16.0985 18.5154 16.3856 18.1616 16.3856H1.83837C1.48461 16.3856 1.19727 16.0985 1.19727 15.7444V4.25593ZM3.5709 15.5389H2.37363V4.51222L9.8505 9.36636C9.93846 9.42343 10.0615 9.42351 10.1497 9.3662L17.6265 4.51222V15.5389H16.4292V6.71696L10.8015 10.3705C10.5626 10.5255 10.2855 10.6073 10 10.6073C9.71449 10.6073 9.43736 10.5255 9.19871 10.3706L3.5709 6.71696V15.5389Z" fill="white"/>
</svg>
