<svg width="20" height="21" viewBox="0 0 20 21" fill="none" xmlns="http://www.w3.org/2000/svg">
<path d="M18.125 3H1.875C0.839453 3 0 3.83945 0 4.875V16.125C0 17.1605 0.839453 18 1.875 18H18.125C19.1605 18 20 17.1605 20 16.125V4.875C20 3.83945 19.1605 3 18.125 3ZM18.125 4.875V6.46895C17.2491 7.18219 15.8528 8.29125 12.8677 10.6287C12.2098 11.1462 10.9067 12.3893 10 12.3748C9.09344 12.3895 7.78988 11.146 7.13231 10.6287C4.14766 8.2916 2.75098 7.1823 1.875 6.46895V4.875H18.125ZM1.875 16.125V8.87492C2.77008 9.58785 4.03941 10.5883 5.97414 12.1033C6.82793 12.7754 8.32312 14.259 10 14.25C11.6686 14.259 13.1449 12.7969 14.0255 12.1036C15.9602 10.5886 17.2299 9.58793 18.125 8.87496V16.125H1.875Z" fill="white"/>
</svg>
