<svg width="14" height="21" viewBox="0 0 14 21" fill="none" xmlns="http://www.w3.org/2000/svg">
<g clip-path="url(#clip0)">
<path d="M11.4108 0.868967C11.579 0.888392 11.7294 0.907808 11.8558 0.925144L11.8558 3.07617L10.7769 3.07617C9.89053 3.07617 9.22732 3.35564 8.79505 3.85551C8.37448 4.34184 8.23623 4.96383 8.23623 5.53164L8.23623 7.88047L8.23623 8.38047L8.73623 8.38047L11.6267 8.38047L11.2247 11L8.73623 11L8.23623 11L8.23623 11.5L8.23623 19.75L5.32334 19.75L5.32334 11.5L5.32334 11L4.82334 11L2.14404 11L2.14404 8.38047L4.82334 8.38047L5.32334 8.38047L5.32334 7.88047L5.32334 5.12188C5.32334 3.65252 5.75895 2.57353 6.46935 1.86247C7.18024 1.1509 8.22399 0.750001 9.55303 0.750001C10.2114 0.750001 10.8911 0.808969 11.4108 0.868967Z" stroke="white"/>
</g>
<defs>
<clipPath id="clip0">
<rect width="12.5" height="20" fill="white" transform="translate(0.75 0.25)"/>
</clipPath>
</defs>
</svg>
