<svg width="13" height="23" viewBox="0 0 13 23" fill="none" xmlns="http://www.w3.org/2000/svg">
<path d="M8.22105 22.0233H4.69422C4.10513 22.0233 3.62592 21.5441 3.62592 20.955V13H1.5683C0.979205 13 0.5 12.5207 0.5 11.9317V8.52303C0.5 7.93394 0.979205 7.45473 1.5683 7.45473H3.62592V5.74778C3.62592 4.05527 4.15738 2.6153 5.16267 1.5838C6.1725 0.547591 7.58374 0 9.24382 0L11.9335 0.00436861C12.5216 0.00537678 13 0.484582 13 1.07267V4.23757C13 4.82667 12.521 5.30587 11.932 5.30587L10.1211 5.30654C9.56878 5.30654 9.42814 5.41727 9.39806 5.45121C9.3485 5.5075 9.28952 5.66662 9.28952 6.106V7.45457H11.7959C11.9846 7.45457 12.1674 7.50111 12.3245 7.58882C12.6634 7.77818 12.8741 8.13624 12.8741 8.5232L12.8728 11.9319C12.8728 12.5207 12.3936 12.9999 11.8045 12.9999H9.28952V20.955C9.28952 21.5441 8.81015 22.0233 8.22105 22.0233V22.0233ZM4.91702 20.7322H7.99825V12.422C7.99825 12.0287 8.31834 11.7088 8.71152 11.7088H11.5817L11.5829 8.74583H8.71135C8.31817 8.74583 7.99825 8.42591 7.99825 8.03257V6.106C7.99825 5.60159 8.0495 5.02796 8.43024 4.59681C8.89029 4.0756 9.61532 4.01544 10.1207 4.01544L11.7089 4.01477V1.29513L9.24281 1.2911C6.57492 1.2911 4.91702 2.9989 4.91702 5.74778V8.03257C4.91702 8.42575 4.5971 8.74583 4.20393 8.74583H1.7911V11.7088H4.20393C4.5971 11.7088 4.91702 12.0287 4.91702 12.422V20.7322ZM11.931 1.29547H11.9312H11.931Z" fill="white"/>
</svg>
