<svg width="23" height="21" viewBox="0 0 23 21" fill="none" xmlns="http://www.w3.org/2000/svg">
<g clip-path="url(#clip0)">
<path d="M6.29479 10.4956C6.29479 13.3349 8.58497 15.6251 11.4243 15.6251C14.2635 15.6251 16.5537 13.3349 16.5537 10.4956C16.5537 7.65632 14.2635 5.36614 11.4243 5.36614C8.58497 5.36614 6.29479 7.65632 6.29479 10.4956ZM14.7591 10.4956C14.7591 12.3304 13.2635 13.8304 11.4243 13.8304C9.58497 13.8304 8.08943 12.3349 8.08943 10.4956C8.08943 8.65632 9.58497 7.16078 11.4243 7.16078C13.2635 7.16078 14.7591 8.66078 14.7591 10.4956ZM6.08496 3.95989C6.75014 3.95989 7.28139 4.4956 7.28139 5.15632C7.28139 5.8215 6.74568 6.35275 6.08496 6.35275C5.42425 6.35275 4.88853 5.81703 4.88853 5.15632C4.88853 4.4956 5.42425 3.95989 6.08496 3.95989ZM7.29925 0.562569C5.69657 0.638462 4.27693 1.00453 3.10728 2.17864C1.93764 3.34828 1.57157 4.76793 1.49121 6.3706C1.39746 8.02239 1.39746 12.9733 1.49121 14.6251C1.5671 16.2233 1.93318 17.6429 3.10282 18.817C4.27246 19.9911 5.69211 20.3527 7.29479 20.4331C8.94657 20.5269 13.8975 20.5269 15.5493 20.4331C17.1519 20.3572 18.5716 19.9911 19.7412 18.817C20.9109 17.6429 21.2769 16.2277 21.3573 14.6251C21.451 12.9733 21.451 8.02239 21.3573 6.3706C21.2814 4.76793 20.9153 3.34828 19.7412 2.17864C18.5716 1.009 17.1519 0.642925 15.5493 0.562569C13.8975 0.468819 8.95104 0.468819 7.29925 0.562569ZM17.3216 2.6965C18.1966 3.04471 18.8707 3.71882 19.2234 4.59828C19.7457 5.91525 19.6252 9.04025 19.6252 10.4956C19.6252 11.951 19.7412 15.0804 19.2234 16.3929C18.8752 17.2679 18.201 17.942 17.3216 18.2947C16.0046 18.817 12.8796 18.6965 11.4243 18.6965C9.96889 18.6965 6.83943 18.8126 5.52693 18.2947C4.65193 17.9465 3.97782 17.2724 3.62514 16.3929C3.10282 15.076 3.22335 11.951 3.22335 10.4956C3.22335 9.04025 3.10728 5.91078 3.62514 4.59828C3.97336 3.72328 4.64746 3.04918 5.52693 2.6965C6.84389 2.17418 9.96889 2.29471 11.4243 2.29471C12.8796 2.29471 16.0091 2.17418 17.3216 2.6965Z" fill="white"/>
</g>
<defs>
<clipPath id="clip0">
<rect width="20" height="22.8571" fill="white" transform="translate(0 20.5) rotate(-90)"/>
</clipPath>
</defs>
</svg>
