<svg width="120" height="120" viewBox="0 0 120 120" fill="none" xmlns="http://www.w3.org/2000/svg">
<path d="M35.316 42.54C33.816 48.072 32.196 53.724 30.468 59.484C29.028 59.7 27.588 59.844 26.148 59.904C27.396 56.088 28.608 52.32 29.772 48.588C29.748 48.588 29.724 48.588 29.7 48.588C27.792 52.296 25.764 56.088 23.592 59.94C21.936 59.904 20.292 59.748 18.636 59.46C19.332 55.356 20.076 51.216 20.856 47.028C20.82 47.016 20.796 47.004 20.76 46.992C19.248 50.928 17.688 54.9 16.08 58.884C14.772 58.536 13.464 58.092 12.156 57.54C14.868 51.288 17.484 45.072 19.98 38.892C21.948 39.936 23.928 40.716 25.896 41.28C25.332 44.652 24.804 47.988 24.288 51.3C24.312 51.3 24.336 51.312 24.36 51.312C26.1 48.18 27.756 45.096 29.328 42.048C31.344 42.396 33.336 42.54 35.316 42.54Z" fill="#1D1D1B"/>
<path d="M43.968 46.56C44.688 47.22 45.036 48.204 44.952 49.56C44.88 50.796 44.556 51.972 43.968 53.124C43.38 54.276 42.588 55.296 41.58 56.172C40.572 57.048 39.444 57.684 38.22 58.02C38.112 58.044 38.016 58.08 37.908 58.104C36.252 58.56 35.052 58.404 34.32 57.66C33.588 56.916 33.384 55.716 33.648 54.144C33.864 52.872 34.284 51.624 34.908 50.424C35.52 49.224 36.312 48.216 37.26 47.4C38.208 46.584 39.264 46.116 40.476 45.936C40.584 45.924 40.68 45.9 40.788 45.888C42.192 45.684 43.248 45.912 43.968 46.56ZM39.12 49.272C38.808 49.62 38.592 50.028 38.472 50.496C38.244 51.348 38.052 52.116 37.896 52.776C37.728 53.436 37.62 53.916 37.572 54.216C37.524 54.612 37.584 54.912 37.776 55.128C37.968 55.332 38.244 55.392 38.592 55.308C39 55.2 39.372 54.96 39.696 54.588C40.02 54.216 40.224 53.808 40.344 53.352C40.476 52.8 40.608 52.248 40.728 51.696C40.86 51.06 41.004 50.424 41.136 49.788C41.172 49.44 41.1 49.152 40.92 48.924C40.74 48.696 40.488 48.612 40.152 48.672C39.768 48.708 39.432 48.924 39.12 49.272Z" fill="#1D1D1B"/>
<path d="M54.2279 43.812C55.0199 44.028 55.4519 44.46 55.5119 45.132C55.5239 45.324 55.5239 45.48 55.4879 45.612C55.4519 45.744 55.4399 45.816 55.4399 45.828C54.4079 46.08 53.3879 46.332 52.3559 46.596C52.3559 46.56 52.3559 46.536 52.3559 46.5C52.3439 46.236 52.2239 46.08 51.9839 46.032C51.7439 45.984 51.4679 45.996 51.1439 46.068C50.1719 46.308 49.6919 46.632 49.6919 47.028C49.6919 47.232 49.8239 47.34 50.0999 47.352C50.3759 47.364 50.8199 47.328 51.4199 47.232C52.1759 47.1 52.8239 47.04 53.3399 47.028C53.8679 47.016 54.3239 47.124 54.7319 47.352C55.1399 47.58 55.3679 47.988 55.4159 48.588C55.4999 49.656 55.1279 50.652 54.2639 51.624C53.3999 52.596 51.9719 53.448 50.0159 54.132C49.9439 54.156 49.8839 54.18 49.8119 54.204C48.2999 54.744 47.1359 54.936 46.3439 54.756C45.5519 54.588 45.1919 54 45.2519 53.052C45.2759 52.728 45.3119 52.44 45.3719 52.212C46.4399 51.9 47.5079 51.564 48.5759 51.24C48.5639 51.252 48.5519 51.288 48.5519 51.324C48.5519 51.372 48.5519 51.42 48.5519 51.456C48.5519 51.768 48.7079 51.936 49.0319 51.972C49.3559 51.996 49.7159 51.948 50.1239 51.816C50.5319 51.684 50.9399 51.516 51.3359 51.3C51.7319 51.096 51.9239 50.868 51.9119 50.604C51.9119 50.4 51.7559 50.292 51.4679 50.304C51.1799 50.304 50.6999 50.364 50.0519 50.46C49.2839 50.592 48.6359 50.676 48.1079 50.688C47.5919 50.7 47.1479 50.568 46.7879 50.304C46.4279 50.028 46.2719 49.548 46.2959 48.864C46.3439 47.964 46.6199 47.148 47.1359 46.44C47.6519 45.732 48.2759 45.156 49.0319 44.724C49.7879 44.292 50.5439 44.004 51.3239 43.836C51.3719 43.824 51.4199 43.812 51.4679 43.8C52.5239 43.596 53.4359 43.608 54.2279 43.812Z" fill="#1D1D1B"/>
<path d="M61.344 42.216C62.064 42.132 62.784 42.048 63.516 41.988C63.564 42.672 63.612 43.356 63.66 44.052C62.904 44.148 62.16 44.268 61.404 44.4C61.428 46.428 61.428 47.544 61.452 47.652C61.512 47.952 61.632 48.144 61.812 48.204C61.992 48.264 62.256 48.252 62.592 48.18C62.748 48.144 62.964 48.072 63.216 47.988C63.468 47.892 63.672 47.808 63.816 47.724C63.84 48.288 63.852 48.852 63.864 49.428C63.552 49.596 63.12 49.788 62.544 50.004C61.968 50.22 61.5 50.4 61.104 50.508C60 50.82 59.136 50.952 58.524 50.844C57.912 50.748 57.564 50.352 57.492 49.68C57.48 49.548 57.468 49.38 57.48 49.164C57.48 48.948 57.504 48.6 57.54 48.108C57.588 47.112 57.636 46.116 57.672 45.132C57.324 45.204 56.976 45.288 56.616 45.36C56.664 44.544 56.7 43.74 56.724 42.936C57.06 42.876 57.396 42.816 57.732 42.756C57.756 41.856 57.768 40.968 57.78 40.08C58.98 39.936 60.192 39.828 61.392 39.756C61.416 40.56 61.38 41.388 61.344 42.216Z" fill="#1D1D1B"/>
<path d="M72.084 42.3C72.588 42.576 72.936 42.912 73.152 43.308C73.224 43.452 73.308 43.74 73.404 44.184C73.44 44.268 73.464 44.376 73.476 44.496C72.444 44.424 71.412 44.4 70.38 44.412C70.344 44.328 70.32 44.256 70.32 44.184C70.308 44.112 70.296 44.064 70.272 44.016C70.128 43.668 69.828 43.488 69.396 43.5C69.144 43.5 68.964 43.56 68.832 43.692C68.712 43.812 68.664 43.98 68.7 44.16C68.94 45.576 69.156 47.028 69.336 48.504C68.016 48.696 66.696 48.948 65.364 49.248C65.232 46.716 65.04 44.268 64.788 41.904C65.676 41.844 66.576 41.82 67.464 41.82C67.644 42.144 67.836 42.456 68.016 42.78C68.052 42.684 68.172 42.552 68.352 42.384C68.532 42.216 68.796 42.072 69.108 41.94C69.432 41.82 69.816 41.772 70.26 41.808C70.98 41.856 71.58 42.036 72.084 42.3Z" fill="#1D1D1B"/>
<path d="M78.5759 43.692C79.1159 43.968 79.6079 44.28 80.0519 44.604C80.0879 44.616 80.1119 44.628 80.1479 44.64C80.1959 44.52 80.2319 44.4 80.2679 44.292C81.1679 44.676 82.0679 45.108 82.9559 45.6C83.4599 46.248 83.9279 46.884 84.3719 47.484C84.8159 48.096 85.1039 48.48 85.2359 48.624C85.3919 48.792 85.6439 48.948 85.9919 49.092C86.2199 49.188 86.4239 49.248 86.6159 49.284C86.8439 49.584 87.0719 49.872 87.2999 50.172C87.084 50.124 86.7839 50.04 86.4359 49.944C86.0759 49.836 85.7279 49.74 85.3799 49.62C84.6359 49.38 83.9759 49.164 83.4119 48.936C82.8359 48.708 82.3679 48.432 81.9719 48.084C81.7799 48.228 81.4679 48.324 81.0239 48.372C80.5799 48.432 80.0759 48.42 79.5119 48.36C78.2999 48.228 77.2799 47.976 76.4879 47.532C75.6839 47.088 75.1079 46.512 74.7359 45.816C74.4119 45.216 74.2679 44.64 74.2679 44.112C74.2679 43.584 74.4959 43.176 74.9399 42.948C75.3839 42.72 76.0679 42.744 77.0279 43.032C77.5199 43.188 78.0359 43.416 78.5759 43.692ZM78.1199 44.556C77.9639 44.628 77.9279 44.772 78.0239 44.964C78.4679 45.936 78.6959 46.476 78.7319 46.524C78.8519 46.704 79.0559 46.872 79.3319 47.028C79.6079 47.184 79.9079 47.28 80.2079 47.34C80.6159 47.424 80.9039 47.424 81.0359 47.352C81.1799 47.28 81.1919 47.148 81.1079 46.956C80.9879 46.728 80.8679 46.512 80.7479 46.284C80.6879 46.188 80.6279 46.08 80.5799 45.984C80.4359 45.72 80.3399 45.552 80.3039 45.492C80.1599 45.3 79.9559 45.132 79.6919 44.976C79.4279 44.82 79.1519 44.688 78.8639 44.604C78.5279 44.508 78.2759 44.484 78.1199 44.556Z" fill="#1D1D1B"/>
<path d="M64.8121 56.472C65.5681 56.928 65.9281 57.744 65.8561 58.776C65.7961 59.724 65.4841 60.576 64.9201 61.356C64.3561 62.136 63.5881 62.772 62.6161 63.36C61.6441 63.948 60.5521 64.44 59.3521 64.98C59.2561 65.028 59.1481 65.076 59.0521 65.124C57.4321 65.892 56.2321 66.564 55.4521 66.768C54.6841 66.984 54.3841 66.744 54.5521 65.844C54.6841 65.136 55.0441 64.2 55.5961 63.096C56.1481 61.992 56.9041 60.804 57.8521 59.652C58.8001 58.5 59.8921 57.516 61.1401 56.868C61.2481 56.808 61.3561 56.76 61.4641 56.712C62.9401 56.004 64.0441 56.016 64.8121 56.472ZM59.8801 59.448C59.5681 59.796 59.3641 60.144 59.2681 60.468C59.0761 61.068 58.9201 61.584 58.7881 62.04C58.6561 62.496 58.5721 62.808 58.5241 63C58.4881 63.252 58.5721 63.384 58.7761 63.42C58.9801 63.456 59.2561 63.384 59.5921 63.216C60.0001 63.024 60.3601 62.772 60.6721 62.472C60.9721 62.16 61.1761 61.86 61.2721 61.536C61.3801 61.152 61.5001 60.768 61.6081 60.384C61.7281 59.94 61.8361 59.496 61.9561 59.052C61.9801 58.812 61.8961 58.644 61.7041 58.548C61.5121 58.452 61.2481 58.476 60.9001 58.644C60.5281 58.824 60.1921 59.1 59.8801 59.448Z" fill="#1D1D1B"/>
<path d="M75.864 57.288C76.608 57.564 77.34 57.864 78.084 58.176C77.988 59.004 77.892 59.832 77.796 60.66C77.04 60.324 76.284 60 75.528 59.7C75.204 61.908 75.024 63.084 75.024 63.228C75.024 63.588 75.12 63.864 75.276 64.056C75.444 64.248 75.684 64.416 76.02 64.56C76.176 64.632 76.38 64.704 76.632 64.776C76.884 64.848 77.088 64.896 77.244 64.908C77.16 65.556 77.076 66.192 76.992 66.84C76.68 66.792 76.236 66.672 75.672 66.492C75.108 66.312 74.64 66.132 74.268 65.976C73.2 65.52 72.384 65.052 71.82 64.56C71.256 64.068 70.98 63.492 70.992 62.796C70.992 62.664 71.004 62.496 71.04 62.292C71.064 62.088 71.136 61.752 71.232 61.296C71.412 60.348 71.58 59.388 71.76 58.44C71.4 58.344 71.052 58.26 70.692 58.176C70.836 57.408 70.98 56.64 71.124 55.86C71.472 55.932 71.82 56.016 72.168 56.1C72.324 55.2 72.48 54.312 72.624 53.412C73.884 53.712 75.156 54.108 76.404 54.552C76.248 55.476 76.056 56.388 75.864 57.288Z" fill="#1D1D1B"/>
<path d="M87.5402 62.964C88.2962 63.924 88.7522 65.004 88.8722 66.228C88.8842 66.408 88.8842 66.6 88.8962 66.78C88.9082 66.984 88.9082 67.488 88.8842 68.28C86.7722 67.536 84.6482 66.552 82.5122 65.52C82.5002 65.676 82.4882 65.82 82.4642 65.976C82.4282 66.348 82.4162 66.564 82.4282 66.612C82.4522 66.984 82.5962 67.332 82.8602 67.656C83.1242 67.98 83.4482 68.244 83.8322 68.436C84.2882 68.664 84.6482 68.7 84.9122 68.532C85.1762 68.376 85.3082 68.052 85.3322 67.56C86.5082 68.1 87.6722 68.592 88.8482 69.012C88.8242 69.78 88.6202 70.392 88.2122 70.848C87.8042 71.304 87.2162 71.532 86.4602 71.532C85.7042 71.532 84.8162 71.268 83.8082 70.752C83.7122 70.704 83.6042 70.656 83.5082 70.596C82.5602 70.104 81.6962 69.492 80.9282 68.772C80.1602 68.052 79.5602 67.296 79.1282 66.48C78.6842 65.664 78.4562 64.86 78.4202 64.044C78.3722 62.796 78.5882 61.848 79.0682 61.164C79.5362 60.48 80.2082 60.096 81.0602 59.988C81.9122 59.88 82.8962 60.072 84.0242 60.552C84.1802 60.612 84.3242 60.684 84.4802 60.744C85.7642 61.296 86.7842 62.004 87.5402 62.964ZM83.0882 62.904C82.8242 63.048 82.6802 63.3 82.6562 63.66C82.6442 63.744 82.6442 63.828 82.6322 63.924C83.5082 64.332 84.3722 64.74 85.2482 65.112C85.2482 65.076 85.2482 65.016 85.2482 64.932C85.2482 64.86 85.2482 64.764 85.2482 64.656C85.2242 64.308 85.0922 63.96 84.8642 63.636C84.6362 63.312 84.3602 63.084 84.0362 62.94C83.6642 62.772 83.3522 62.76 83.0882 62.904Z" fill="#1D1D1B"/>
<path d="M99.9239 70.968C99.9599 71.172 100.032 71.316 100.152 71.4C100.272 71.484 100.404 71.496 100.548 71.448C100.74 71.376 100.956 71.232 101.208 70.992C101.256 71.82 101.292 72.66 101.34 73.488C100.92 74.004 100.272 74.412 99.3959 74.58C98.5559 74.748 97.9199 74.64 97.4639 74.364C97.0079 74.088 96.6839 73.644 96.4799 73.056C96.2399 73.488 95.8919 73.884 95.4119 74.22C94.9319 74.556 94.2839 74.664 93.4679 74.508C92.5679 74.328 91.8359 73.872 91.2839 73.212C90.7319 72.552 90.4199 71.808 90.3239 71.004C90.2759 70.62 90.2759 69.636 90.2879 68.04C90.2999 66.444 90.3359 64.74 90.3839 62.928C91.5959 63.204 92.7959 63.372 93.9959 63.396C94.0079 64.548 94.0199 65.7 94.0319 66.84C94.0199 67.608 94.0319 68.34 94.0439 69.06C94.0559 69.78 94.0799 70.272 94.1039 70.524C94.1519 70.848 94.2599 71.112 94.4399 71.34C94.6199 71.556 94.8479 71.688 95.1359 71.7C95.4599 71.724 95.6999 71.604 95.8679 71.352C96.0359 71.1 96.1199 70.788 96.1079 70.404C96.0479 68.052 95.9879 65.688 95.9159 63.3C97.1159 63.168 98.3159 62.868 99.5159 62.364C99.7439 67.824 99.8639 70.656 99.9239 70.968Z" fill="#1D1D1B"/>
<path d="M106.248 65.988C106.368 67.488 106.488 68.988 106.596 70.488C105.36 71.604 104.124 72.468 102.888 73.104C102.804 71.664 102.72 70.212 102.636 68.76C103.836 68.076 105.048 67.152 106.248 65.988ZM105.612 53.088C105.624 57.264 105.588 61.368 105.516 65.412C104.724 66.132 103.92 66.756 103.128 67.272C102.492 63.9 101.868 60.54 101.256 57.168C102.708 56.184 104.16 54.84 105.612 53.088Z" fill="#1D1D1B"/>
</svg>
