<svg width="269" height="62" viewBox="0 0 269 62" fill="none" xmlns="http://www.w3.org/2000/svg">
<path d="M27.547 36V28.93H27.477L24.985 36H22.717L20.225 28.93H20.155V36H18.195V26.396H21.681L23.921 32.738H23.977L26.217 26.396H29.703V36H27.547ZM38.5481 32.626C38.5481 33.3447 38.3941 33.97 38.0861 34.502C37.7875 35.034 37.3721 35.44 36.8401 35.72C36.3081 36 35.7108 36.14 35.0481 36.14H34.8241C34.1615 36.14 33.5641 36 33.0321 35.72C32.5001 35.44 32.0801 35.034 31.7721 34.502C31.4735 33.97 31.3241 33.3447 31.3241 32.626V32.22C31.3241 31.5013 31.4735 30.876 31.7721 30.344C32.0801 29.812 32.5001 29.406 33.0321 29.126C33.5641 28.846 34.1615 28.706 34.8241 28.706H35.0481C35.7108 28.706 36.3081 28.846 36.8401 29.126C37.3721 29.406 37.7875 29.812 38.0861 30.344C38.3941 30.876 38.5481 31.5013 38.5481 32.22V32.626ZM36.4761 31.856C36.4761 31.2867 36.3315 30.8527 36.0421 30.554C35.7621 30.2553 35.3935 30.106 34.9361 30.106C34.4788 30.106 34.1055 30.2553 33.8161 30.554C33.5361 30.8527 33.3961 31.2867 33.3961 31.856V32.99C33.3961 33.5593 33.5361 33.9933 33.8161 34.292C34.1055 34.5907 34.4788 34.74 34.9361 34.74C35.3935 34.74 35.7621 34.5907 36.0421 34.292C36.3315 33.9933 36.4761 33.5593 36.4761 32.99V31.856ZM41.356 33.816C41.356 34.1427 41.5007 34.3807 41.79 34.53C42.0793 34.67 42.4387 34.74 42.868 34.74C43.2413 34.74 43.5727 34.684 43.862 34.572C44.1607 34.46 44.31 34.2827 44.31 34.04C44.31 33.7787 44.1747 33.592 43.904 33.48C43.6333 33.368 43.2133 33.27 42.644 33.186C42.0467 33.0833 41.5567 32.9713 41.174 32.85C40.7913 32.7287 40.46 32.5187 40.18 32.22C39.9093 31.9213 39.774 31.506 39.774 30.974C39.774 30.4887 39.914 30.078 40.194 29.742C40.4833 29.3967 40.8613 29.14 41.328 28.972C41.804 28.7947 42.322 28.706 42.882 28.706H43.162C43.6567 28.706 44.1233 28.79 44.562 28.958C45.01 29.1167 45.3693 29.3453 45.64 29.644C45.9107 29.9333 46.046 30.2647 46.046 30.638C46.046 30.7127 46.0413 30.7827 46.032 30.848C46.0227 30.904 46.018 30.9367 46.018 30.946H44.226C44.226 30.386 43.7967 30.106 42.938 30.106C42.546 30.106 42.2287 30.162 41.986 30.274C41.7527 30.386 41.636 30.54 41.636 30.736C41.636 30.9693 41.762 31.1327 42.014 31.226C42.2753 31.3193 42.6813 31.408 43.232 31.492C43.8573 31.5947 44.3613 31.7067 44.744 31.828C45.136 31.94 45.4767 32.15 45.766 32.458C46.0553 32.7567 46.2 33.1813 46.2 33.732C46.2 34.5813 45.9013 35.1973 45.304 35.58C44.7067 35.9533 43.946 36.14 43.022 36.14H42.56C41.9813 36.14 41.4633 36.0513 41.006 35.874C40.5487 35.6967 40.1893 35.4447 39.928 35.118C39.676 34.7913 39.55 34.418 39.55 33.998L39.564 33.718H41.356V33.816ZM51.4929 35.874C51.3062 35.9487 51.0589 36.0093 50.7509 36.056C50.4522 36.112 50.1862 36.14 49.9529 36.14C49.2342 36.14 48.6929 35.986 48.3289 35.678C47.9649 35.37 47.7829 34.8567 47.7829 34.138V30.246H46.9989V28.846H47.8529L48.5669 26.564H49.8269V28.846H51.4929V30.246H49.8269V33.788C49.8269 34.1613 49.8969 34.4133 50.0369 34.544C50.1862 34.6747 50.3822 34.74 50.6249 34.74C50.7369 34.74 50.8816 34.7213 51.0589 34.684C51.2362 34.6467 51.3809 34.6047 51.4929 34.558V35.874ZM56.8282 31.296C56.8282 31.0067 56.7489 30.7593 56.5902 30.554C56.4315 30.3393 56.1795 30.232 55.8342 30.232C55.5075 30.232 55.2555 30.3627 55.0782 30.624C54.9102 30.876 54.8262 31.1933 54.8262 31.576V36H52.8102V28.846H54.3222L54.5742 29.896C54.6115 29.7933 54.7049 29.6487 54.8542 29.462C55.0129 29.2753 55.2369 29.1027 55.5262 28.944C55.8249 28.7853 56.1749 28.706 56.5762 28.706C57.2202 28.706 57.7149 28.9067 58.0602 29.308C58.4149 29.7093 58.5922 30.2413 58.5922 30.904C58.5922 31.044 58.5829 31.184 58.5642 31.324C58.5549 31.464 58.5455 31.562 58.5362 31.618H56.8282V31.296ZM64.0418 31.17C64.0418 30.8527 63.9391 30.596 63.7338 30.4C63.5378 30.204 63.2158 30.106 62.7678 30.106C62.5065 30.106 62.2825 30.1527 62.0958 30.246C61.9091 30.33 61.7645 30.4373 61.6618 30.568C61.5685 30.6987 61.5218 30.82 61.5218 30.932V31.044H59.5478C59.5291 30.932 59.5198 30.848 59.5198 30.792C59.5198 30.3907 59.6505 30.0313 59.9118 29.714C60.1825 29.3967 60.5558 29.1493 61.0318 28.972C61.5078 28.7947 62.0538 28.706 62.6698 28.706H62.9638C63.9718 28.706 64.7371 28.9067 65.2598 29.308C65.7825 29.7 66.0438 30.2413 66.0438 30.932V34.236C66.0438 34.404 66.0811 34.53 66.1558 34.614C66.2398 34.698 66.3378 34.74 66.4498 34.74C66.5431 34.74 66.6458 34.7213 66.7578 34.684C66.8698 34.6467 66.9585 34.614 67.0238 34.586V35.846C66.6785 36.042 66.2678 36.14 65.7918 36.14C65.2785 36.14 64.8865 36.0373 64.6158 35.832C64.3451 35.6173 64.1865 35.3187 64.1398 34.936C63.4865 35.7387 62.6838 36.14 61.7318 36.14C61.0225 36.14 60.4391 35.9953 59.9818 35.706C59.5245 35.4167 59.2958 34.866 59.2958 34.054C59.2958 33.3913 59.4825 32.8873 59.8558 32.542C60.2385 32.1873 60.7658 31.9493 61.4378 31.828C62.1098 31.7067 62.9778 31.646 64.0418 31.646V31.17ZM64.0418 32.794C63.1551 32.794 62.4925 32.8827 62.0538 33.06C61.6245 33.228 61.4098 33.508 61.4098 33.9C61.4098 34.208 61.4938 34.4273 61.6618 34.558C61.8391 34.6793 62.1051 34.74 62.4598 34.74C62.7025 34.74 62.9451 34.6747 63.1878 34.544C63.4305 34.4133 63.6311 34.2267 63.7898 33.984C63.9578 33.7413 64.0418 33.4707 64.0418 33.172V32.794ZM78.0052 32.626C78.0052 33.3447 77.8512 33.97 77.5432 34.502C77.2445 35.034 76.8292 35.44 76.2972 35.72C75.7652 36 75.1678 36.14 74.5052 36.14H74.2812C73.6185 36.14 73.0212 36 72.4892 35.72C71.9572 35.44 71.5372 35.034 71.2292 34.502C70.9305 33.97 70.7812 33.3447 70.7812 32.626V32.22C70.7812 31.5013 70.9305 30.876 71.2292 30.344C71.5372 29.812 71.9572 29.406 72.4892 29.126C73.0212 28.846 73.6185 28.706 74.2812 28.706H74.5052C75.1678 28.706 75.7652 28.846 76.2972 29.126C76.8292 29.406 77.2445 29.812 77.5432 30.344C77.8512 30.876 78.0052 31.5013 78.0052 32.22V32.626ZM75.9332 31.856C75.9332 31.2867 75.7885 30.8527 75.4992 30.554C75.2192 30.2553 74.8505 30.106 74.3932 30.106C73.9358 30.106 73.5625 30.2553 73.2732 30.554C72.9932 30.8527 72.8532 31.2867 72.8532 31.856V32.99C72.8532 33.5593 72.9932 33.9933 73.2732 34.292C73.5625 34.5907 73.9358 34.74 74.3932 34.74C74.8505 34.74 75.2192 34.5907 75.4992 34.292C75.7885 33.9933 75.9332 33.5593 75.9332 32.99V31.856ZM86.6472 28.132V36H84.5052V28.132H81.7752V26.396H89.3632V28.132H86.6472ZM97.0302 33.326C97.0302 33.9513 96.8809 34.4787 96.5822 34.908C96.2835 35.328 95.8869 35.6407 95.3922 35.846C94.9069 36.042 94.3749 36.14 93.7962 36.14H93.5722C92.9095 36.14 92.3122 36 91.7802 35.72C91.2482 35.44 90.8282 35.0387 90.5202 34.516C90.2215 33.984 90.0722 33.354 90.0722 32.626V32.22C90.0722 31.5013 90.2262 30.876 90.5342 30.344C90.8422 29.812 91.2575 29.406 91.7802 29.126C92.3122 28.846 92.9095 28.706 93.5722 28.706H93.7962C94.3749 28.706 94.9115 28.8273 95.4062 29.07C95.9009 29.3033 96.2975 29.6487 96.5962 30.106C96.8949 30.554 97.0442 31.086 97.0442 31.702V32.766H92.1442V33.102C92.1442 33.5687 92.2795 33.9607 92.5502 34.278C92.8302 34.586 93.2082 34.74 93.6842 34.74C94.1135 34.74 94.4495 34.6233 94.6922 34.39C94.9442 34.1473 95.0702 33.7927 95.0702 33.326H97.0302ZM93.5862 30.106C93.1755 30.106 92.8395 30.2507 92.5782 30.54C92.3262 30.8293 92.1815 31.198 92.1442 31.646H94.9722C94.9722 31.17 94.8602 30.7967 94.6362 30.526C94.4215 30.246 94.0715 30.106 93.5862 30.106ZM105.08 34.32C105.08 34.46 105.122 34.5673 105.206 34.642C105.29 34.7073 105.383 34.74 105.486 34.74C105.579 34.74 105.682 34.7213 105.794 34.684C105.906 34.6467 105.995 34.614 106.06 34.586V35.846C105.715 36.042 105.304 36.14 104.828 36.14C103.895 36.14 103.353 35.7993 103.204 35.118C102.616 35.7993 101.897 36.14 101.048 36.14C100.32 36.14 99.718 35.944 99.242 35.552C98.7753 35.16 98.542 34.5907 98.542 33.844V28.846H100.586V33.396C100.586 33.76 100.689 34.0633 100.894 34.306C101.109 34.5393 101.379 34.656 101.706 34.656C102.07 34.656 102.383 34.5207 102.644 34.25C102.905 33.97 103.036 33.634 103.036 33.242V28.846H105.08V34.32ZM107.002 26.396H109.48L108.906 33.172H107.548L107.002 26.396ZM107.226 33.942H109.27V36H107.226V33.942ZM120.943 26.396L120.761 27.642H116.015V30.47H120.313V31.716H116.015V34.754H120.845L121.041 36H114.643V26.396H120.943ZM125.616 28.706C126.185 28.706 126.694 28.832 127.142 29.084C127.599 29.3267 127.954 29.672 128.206 30.12C128.458 30.568 128.584 31.0813 128.584 31.66H127.282C127.282 31.0813 127.132 30.6193 126.834 30.274C126.544 29.9287 126.124 29.756 125.574 29.756C124.995 29.756 124.533 29.952 124.188 30.344C123.852 30.7267 123.684 31.254 123.684 31.926V32.682C123.684 33.494 123.852 34.1007 124.188 34.502C124.524 34.894 125 35.09 125.616 35.09C126.185 35.09 126.61 34.922 126.89 34.586C127.179 34.2407 127.324 33.7787 127.324 33.2H128.584C128.584 34.096 128.313 34.81 127.772 35.342C127.24 35.874 126.526 36.14 125.63 36.14H125.518C124.883 36.14 124.328 35.9953 123.852 35.706C123.376 35.4073 123.007 34.992 122.746 34.46C122.494 33.928 122.368 33.3073 122.368 32.598V32.262C122.368 31.5527 122.498 30.932 122.76 30.4C123.021 29.8587 123.39 29.4433 123.866 29.154C124.342 28.8553 124.888 28.706 125.504 28.706H125.616ZM133.287 28.706C134.286 28.706 135.084 29.014 135.681 29.63C136.278 30.246 136.577 31.0907 136.577 32.164V32.682C136.577 33.7553 136.283 34.6 135.695 35.216C135.107 35.832 134.304 36.14 133.287 36.14C132.27 36.14 131.467 35.832 130.879 35.216C130.291 34.6 129.997 33.7553 129.997 32.682V32.164C129.997 31.0907 130.296 30.246 130.893 29.63C131.49 29.014 132.288 28.706 133.287 28.706ZM133.287 29.756C132.662 29.756 132.176 29.9707 131.831 30.4C131.486 30.8293 131.313 31.4593 131.313 32.29V32.556C131.313 33.368 131.481 33.9933 131.817 34.432C132.162 34.8707 132.652 35.09 133.287 35.09C133.903 35.09 134.384 34.8753 134.729 34.446C135.084 34.0073 135.261 33.3773 135.261 32.556V32.29C135.261 31.478 135.088 30.8527 134.743 30.414C134.407 29.9753 133.922 29.756 133.287 29.756ZM141.2 28.706C141.732 28.706 142.203 28.79 142.614 28.958C143.034 29.126 143.356 29.3593 143.58 29.658C143.813 29.9567 143.93 30.288 143.93 30.652L143.916 30.904H142.614V30.778C142.614 30.0967 142.087 29.756 141.032 29.756C139.987 29.756 139.464 30.0687 139.464 30.694C139.464 30.9833 139.613 31.198 139.912 31.338C140.211 31.4687 140.668 31.5947 141.284 31.716C141.872 31.8373 142.353 31.9633 142.726 32.094C143.109 32.2247 143.431 32.43 143.692 32.71C143.963 32.99 144.098 33.368 144.098 33.844C144.098 34.6093 143.837 35.1833 143.314 35.566C142.791 35.9487 142.04 36.14 141.06 36.14H140.85C140.262 36.14 139.749 36.0513 139.31 35.874C138.871 35.6873 138.531 35.44 138.288 35.132C138.055 34.8147 137.943 34.46 137.952 34.068V33.76H139.254V33.9C139.254 34.6933 139.921 35.09 141.256 35.09C141.648 35.09 141.998 35.0013 142.306 34.824C142.623 34.6467 142.782 34.404 142.782 34.096C142.782 33.8347 142.693 33.6293 142.516 33.48C142.348 33.3307 142.138 33.2187 141.886 33.144C141.634 33.0693 141.284 32.9947 140.836 32.92C140.257 32.808 139.791 32.696 139.436 32.584C139.081 32.4627 138.778 32.262 138.526 31.982C138.274 31.702 138.148 31.3193 138.148 30.834C138.148 30.1713 138.409 29.6533 138.932 29.28C139.455 28.8973 140.169 28.706 141.074 28.706H141.2ZM148.679 28.706C149.211 28.706 149.682 28.79 150.093 28.958C150.513 29.126 150.835 29.3593 151.059 29.658C151.292 29.9567 151.409 30.288 151.409 30.652L151.395 30.904H150.093V30.778C150.093 30.0967 149.565 29.756 148.511 29.756C147.465 29.756 146.943 30.0687 146.943 30.694C146.943 30.9833 147.092 31.198 147.391 31.338C147.689 31.4687 148.147 31.5947 148.763 31.716C149.351 31.8373 149.831 31.9633 150.205 32.094C150.587 32.2247 150.909 32.43 151.171 32.71C151.441 32.99 151.577 33.368 151.577 33.844C151.577 34.6093 151.315 35.1833 150.793 35.566C150.27 35.9487 149.519 36.14 148.539 36.14H148.329C147.741 36.14 147.227 36.0513 146.789 35.874C146.35 35.6873 146.009 35.44 145.767 35.132C145.533 34.8147 145.421 34.46 145.431 34.068V33.76H146.733V33.9C146.733 34.6933 147.4 35.09 148.735 35.09C149.127 35.09 149.477 35.0013 149.785 34.824C150.102 34.6467 150.261 34.404 150.261 34.096C150.261 33.8347 150.172 33.6293 149.995 33.48C149.827 33.3307 149.617 33.2187 149.365 33.144C149.113 33.0693 148.763 32.9947 148.315 32.92C147.736 32.808 147.269 32.696 146.915 32.584C146.56 32.4627 146.257 32.262 146.005 31.982C145.753 31.702 145.627 31.3193 145.627 30.834C145.627 30.1713 145.888 29.6533 146.411 29.28C146.933 28.8973 147.647 28.706 148.553 28.706H148.679ZM154.771 25.92V27.138H153.399V25.92H154.771ZM154.743 28.846V36H153.427V28.846H154.743ZM159.794 28.706C160.326 28.706 160.797 28.79 161.208 28.958C161.628 29.126 161.95 29.3593 162.174 29.658C162.407 29.9567 162.524 30.288 162.524 30.652L162.51 30.904H161.208V30.778C161.208 30.0967 160.68 29.756 159.626 29.756C158.58 29.756 158.058 30.0687 158.058 30.694C158.058 30.9833 158.207 31.198 158.506 31.338C158.804 31.4687 159.262 31.5947 159.878 31.716C160.466 31.8373 160.946 31.9633 161.32 32.094C161.702 32.2247 162.024 32.43 162.286 32.71C162.556 32.99 162.692 33.368 162.692 33.844C162.692 34.6093 162.43 35.1833 161.908 35.566C161.385 35.9487 160.634 36.14 159.654 36.14H159.444C158.856 36.14 158.342 36.0513 157.904 35.874C157.465 35.6873 157.124 35.44 156.882 35.132C156.648 34.8147 156.536 34.46 156.546 34.068V33.76H157.848V33.9C157.848 34.6933 158.515 35.09 159.85 35.09C160.242 35.09 160.592 35.0013 160.9 34.824C161.217 34.6467 161.376 34.404 161.376 34.096C161.376 33.8347 161.287 33.6293 161.11 33.48C160.942 33.3307 160.732 33.2187 160.48 33.144C160.228 33.0693 159.878 32.9947 159.43 32.92C158.851 32.808 158.384 32.696 158.03 32.584C157.675 32.4627 157.372 32.262 157.12 31.982C156.868 31.702 156.742 31.3193 156.742 30.834C156.742 30.1713 157.003 29.6533 157.526 29.28C158.048 28.8973 158.762 28.706 159.668 28.706H159.794ZM166.082 28.846H167.748V29.896H166.082V34.166C166.082 34.502 166.148 34.7447 166.278 34.894C166.409 35.0433 166.61 35.118 166.88 35.118C167.123 35.118 167.412 35.048 167.748 34.908V35.888C167.412 36.056 166.978 36.14 166.446 36.14C165.896 36.14 165.476 35.9767 165.186 35.65C164.906 35.3233 164.766 34.8053 164.766 34.096V29.896H163.982V28.846H164.808L165.256 26.564H166.082V28.846ZM172.252 28.706C172.84 28.706 173.358 28.832 173.806 29.084C174.264 29.3267 174.618 29.6767 174.87 30.134C175.122 30.5913 175.248 31.1233 175.248 31.73V32.724H170.25C170.269 33.48 170.446 34.0633 170.782 34.474C171.118 34.8847 171.618 35.09 172.28 35.09C172.868 35.09 173.302 34.9173 173.582 34.572C173.862 34.2267 174.002 33.816 174.002 33.34H175.248C175.248 33.9 175.118 34.39 174.856 34.81C174.604 35.23 174.25 35.5567 173.792 35.79C173.344 36.0233 172.831 36.14 172.252 36.14H172.196C171.188 36.14 170.39 35.818 169.802 35.174C169.224 34.5207 168.934 33.6527 168.934 32.57V32.29C168.934 31.5807 169.065 30.9553 169.326 30.414C169.588 29.8727 169.961 29.4527 170.446 29.154C170.932 28.8553 171.501 28.706 172.154 28.706H172.252ZM172.182 29.756C171.65 29.756 171.216 29.9193 170.88 30.246C170.554 30.5727 170.353 31.058 170.278 31.702H173.946V31.534C173.946 31.002 173.783 30.5727 173.456 30.246C173.139 29.9193 172.714 29.756 172.182 29.756ZM184.707 28.706C185.445 28.706 186.019 28.9207 186.429 29.35C186.84 29.7793 187.045 30.3907 187.045 31.184V36H185.729V31.422C185.729 30.3113 185.3 29.756 184.441 29.756C184.143 29.756 183.863 29.8447 183.601 30.022C183.349 30.1993 183.144 30.442 182.985 30.75C182.836 31.0487 182.761 31.38 182.761 31.744V36H181.445V31.422C181.445 30.3113 181.016 29.756 180.157 29.756C179.859 29.756 179.579 29.8447 179.317 30.022C179.065 30.1993 178.86 30.442 178.701 30.75C178.552 31.0487 178.477 31.38 178.477 31.744V36H177.161V28.846H178.113L178.295 29.896C178.837 29.1027 179.588 28.706 180.549 28.706C181.492 28.706 182.145 29.1027 182.509 29.896C182.827 29.448 183.167 29.14 183.531 28.972C183.895 28.7947 184.287 28.706 184.707 28.706ZM192.116 28.706C193.059 28.706 193.759 28.8927 194.216 29.266C194.683 29.6393 194.916 30.1807 194.916 30.89V34.6C194.916 34.768 194.953 34.894 195.028 34.978C195.103 35.0527 195.196 35.09 195.308 35.09C195.523 35.09 195.737 35.0247 195.952 34.894V35.86C195.635 36.0467 195.275 36.14 194.874 36.14C194.473 36.14 194.174 36.028 193.978 35.804C193.782 35.5707 193.675 35.2533 193.656 34.852C193.077 35.7107 192.242 36.14 191.15 36.14C190.366 36.14 189.778 35.972 189.386 35.636C189.003 35.2907 188.812 34.7493 188.812 34.012C188.812 33.4333 188.961 32.9807 189.26 32.654C189.559 32.318 190.053 32.0753 190.744 31.926C191.435 31.7767 192.387 31.702 193.6 31.702V31.044C193.6 30.568 193.46 30.2367 193.18 30.05C192.9 29.854 192.494 29.756 191.962 29.756C191.458 29.756 191.066 29.854 190.786 30.05C190.506 30.246 190.366 30.5213 190.366 30.876V31.044H189.078C189.059 30.9133 189.05 30.7593 189.05 30.582C189.05 30.2553 189.181 29.9473 189.442 29.658C189.703 29.3687 190.058 29.14 190.506 28.972C190.954 28.7947 191.449 28.706 191.99 28.706H192.116ZM193.6 32.724C192.62 32.724 191.878 32.7753 191.374 32.878C190.879 32.9713 190.548 33.116 190.38 33.312C190.212 33.508 190.128 33.7787 190.128 34.124C190.128 34.768 190.618 35.09 191.598 35.09C191.943 35.09 192.27 35.006 192.578 34.838C192.886 34.6607 193.133 34.4133 193.32 34.096C193.507 33.7787 193.6 33.4147 193.6 33.004V32.724ZM204.564 26.256C205.31 26.256 205.964 26.41 206.524 26.718C207.084 27.026 207.513 27.4693 207.812 28.048C208.12 28.6173 208.274 29.294 208.274 30.078H206.902C206.902 29.266 206.701 28.636 206.3 28.188C205.898 27.7307 205.32 27.502 204.564 27.502C203.724 27.502 203.084 27.7633 202.646 28.286C202.207 28.7993 201.988 29.56 201.988 30.568V31.828C201.988 32.8267 202.202 33.5873 202.632 34.11C203.061 34.6327 203.696 34.894 204.536 34.894C205.32 34.894 205.917 34.67 206.328 34.222C206.748 33.774 206.958 33.1487 206.958 32.346H208.274C208.274 33.1207 208.12 33.7927 207.812 34.362C207.513 34.9313 207.084 35.37 206.524 35.678C205.964 35.986 205.31 36.14 204.564 36.14C203.322 36.14 202.352 35.762 201.652 35.006C200.961 34.2407 200.616 33.1813 200.616 31.828V30.568C200.616 29.224 200.961 28.1693 201.652 27.404C202.352 26.6387 203.322 26.256 204.564 26.256ZM213.413 28.706C214.075 28.706 214.593 28.9207 214.967 29.35C215.34 29.77 215.527 30.302 215.527 30.946L215.485 31.478H214.323V31.17C214.323 30.89 214.253 30.6427 214.113 30.428C213.973 30.2133 213.795 30.05 213.581 29.938C213.366 29.8167 213.151 29.756 212.937 29.756C212.489 29.756 212.139 29.9333 211.887 30.288C211.635 30.6427 211.509 31.1233 211.509 31.73V36H210.193V28.846H211.131L211.327 29.91C211.383 29.7233 211.509 29.5367 211.705 29.35C211.901 29.1633 212.143 29.0093 212.433 28.888C212.731 28.7667 213.058 28.706 213.413 28.706ZM218.4 25.92V27.138H217.028V25.92H218.4ZM218.372 28.846V36H217.056V28.846H218.372ZM223.507 28.706C224.449 28.706 225.149 28.8927 225.607 29.266C226.073 29.6393 226.307 30.1807 226.307 30.89V34.6C226.307 34.768 226.344 34.894 226.419 34.978C226.493 35.0527 226.587 35.09 226.699 35.09C226.913 35.09 227.128 35.0247 227.343 34.894V35.86C227.025 36.0467 226.666 36.14 226.265 36.14C225.863 36.14 225.565 36.028 225.369 35.804C225.173 35.5707 225.065 35.2533 225.047 34.852C224.468 35.7107 223.633 36.14 222.541 36.14C221.757 36.14 221.169 35.972 220.777 35.636C220.394 35.2907 220.203 34.7493 220.203 34.012C220.203 33.4333 220.352 32.9807 220.651 32.654C220.949 32.318 221.444 32.0753 222.135 31.926C222.825 31.7767 223.777 31.702 224.991 31.702V31.044C224.991 30.568 224.851 30.2367 224.571 30.05C224.291 29.854 223.885 29.756 223.353 29.756C222.849 29.756 222.457 29.854 222.177 30.05C221.897 30.246 221.757 30.5213 221.757 30.876V31.044H220.469C220.45 30.9133 220.441 30.7593 220.441 30.582C220.441 30.2553 220.571 29.9473 220.833 29.658C221.094 29.3687 221.449 29.14 221.897 28.972C222.345 28.7947 222.839 28.706 223.381 28.706H223.507ZM224.991 32.724C224.011 32.724 223.269 32.7753 222.765 32.878C222.27 32.9713 221.939 33.116 221.771 33.312C221.603 33.508 221.519 33.7787 221.519 34.124C221.519 34.768 222.009 35.09 222.989 35.09C223.334 35.09 223.661 35.006 223.969 34.838C224.277 34.6607 224.524 34.4133 224.711 34.096C224.897 33.7787 224.991 33.4147 224.991 33.004V32.724ZM230.422 28.846H232.088V29.896H230.422V34.166C230.422 34.502 230.488 34.7447 230.618 34.894C230.749 35.0433 230.95 35.118 231.22 35.118C231.463 35.118 231.752 35.048 232.088 34.908V35.888C231.752 36.056 231.318 36.14 230.786 36.14C230.236 36.14 229.816 35.9767 229.526 35.65C229.246 35.3233 229.106 34.8053 229.106 34.096V29.896H228.322V28.846H229.148L229.596 26.564H230.422V28.846ZM235.066 25.92V27.138H233.694V25.92H235.066ZM235.038 28.846V36H233.722V28.846H235.038ZM243.197 28.846L240.481 36H239.081L236.365 28.846H237.765L239.809 34.32H239.865L241.909 28.846H243.197ZM247.379 28.706C248.377 28.706 249.175 29.014 249.773 29.63C250.37 30.246 250.669 31.0907 250.669 32.164V32.682C250.669 33.7553 250.375 34.6 249.787 35.216C249.199 35.832 248.396 36.14 247.379 36.14C246.361 36.14 245.559 35.832 244.971 35.216C244.383 34.6 244.089 33.7553 244.089 32.682V32.164C244.089 31.0907 244.387 30.246 244.985 29.63C245.582 29.014 246.38 28.706 247.379 28.706ZM247.379 29.756C246.753 29.756 246.268 29.9707 245.923 30.4C245.577 30.8293 245.405 31.4593 245.405 32.29V32.556C245.405 33.368 245.573 33.9933 245.909 34.432C246.254 34.8707 246.744 35.09 247.379 35.09C247.995 35.09 248.475 34.8753 248.821 34.446C249.175 34.0073 249.353 33.3773 249.353 32.556V32.29C249.353 31.478 249.18 30.8527 248.835 30.414C248.499 29.9753 248.013 29.756 247.379 29.756Z" fill="black"/>
<path d="M3 12.933L37.9192 12.933" stroke="#F47A2E" stroke-width="1.5"/>
<path d="M228.081 47.8522L263 47.8522" stroke="#F47A2E" stroke-width="1.5"/>
<path d="M3 12.933L3 47.8522" stroke="#F47A2E" stroke-width="1.5"/>
<path d="M263 12.933L263 47.8522" stroke="#F47A2E" stroke-width="1.5"/>
</svg>
