<svg width="22" height="20" viewBox="0 0 22 20" fill="none" xmlns="http://www.w3.org/2000/svg">
<path d="M19.427 4.46676L19.2225 4.62965L19.2396 4.89053C19.2523 5.08468 19.2525 5.28156 19.2525 5.49745C19.2525 11.8285 14.8454 18.9924 6.92386 18.9924C5.11914 18.9924 3.40848 18.5721 1.86587 17.8117C3.79868 17.6443 5.56876 16.8573 7.01147 15.6237L8.00529 14.7739L6.69806 14.7438C5.20597 14.7094 3.8958 13.7869 3.22671 12.4076C3.25839 12.4083 3.29027 12.4086 3.32234 12.4086C3.77632 12.4086 4.22693 12.3404 4.64491 12.2223L4.61685 11.2529C3.02028 10.8998 1.73757 9.49644 1.45257 7.67912C1.91018 7.85102 2.40106 7.95574 2.91087 7.9767L4.56175 8.04459L3.2255 7.07276C2.1445 6.28656 1.42129 4.93143 1.42129 3.38067C1.42129 2.84209 1.50649 2.33449 1.66258 1.86433C3.94883 4.58013 7.19041 6.33888 10.804 6.54485L11.4437 6.58131L11.3236 5.95189C11.2587 5.6124 11.2207 5.2634 11.2207 4.91878C11.2207 2.44135 13.0481 0.5 15.2296 0.5C16.3695 0.5 17.4076 1.02039 18.1447 1.87899L18.3372 2.10322L18.6264 2.0427C19.1995 1.92281 19.7594 1.74411 20.2954 1.51393C19.9795 1.97351 19.5833 2.36232 19.1306 2.65714L19.4618 3.57271C19.846 3.5276 20.2244 3.45447 20.5943 3.35766C20.2344 3.7629 19.8435 4.13497 19.427 4.46676Z" stroke="white"/>
</svg>
