<svg width="22" height="19" viewBox="0 0 22 19" fill="none" xmlns="http://www.w3.org/2000/svg">
<path d="M8.371 18.1634C4.69919 18.1634 1.79712 17.5219 0.408697 16.4037L0.381673 16.3818L0.357168 16.3573C0.0273495 16.0274 -0.0807436 15.5945 0.0609188 15.1698L0.073843 15.1346C0.245718 14.7047 0.666845 14.4154 1.12322 14.4127C2.06249 14.3964 2.88426 14.2844 3.63001 14.0671C2.44048 13.5139 1.61417 12.556 1.12255 11.1695C0.957219 10.7372 1.09989 10.2578 1.4809 9.97195C1.57489 9.90129 1.68114 9.84792 1.7936 9.81216C1.13262 9.04913 0.644353 8.18086 0.370931 7.26258L0.362371 7.23404L0.356497 7.20484C0.263677 6.74041 0.471303 6.26288 0.851812 6.05727C1.01143 5.96563 1.18482 5.91813 1.35888 5.9141C1.17122 5.50992 1.03476 5.09501 0.953862 4.67757C0.729284 3.52077 0.914586 2.36112 1.5044 1.23084L1.64086 0.957925C1.75013 0.739557 1.95893 0.586145 2.19962 0.547037C2.44031 0.508097 2.68705 0.587656 2.85942 0.760034L3.108 1.00895C5.07181 3.06776 6.83084 4.04462 9.87205 4.71299C10.0078 3.54561 10.5126 2.46049 11.3268 1.60648C12.2958 0.590341 13.5897 0.0201668 14.9702 0.000696632H14.9793C15.9865 0.000696632 17.236 0.575739 17.9916 0.981256C18.6398 0.769098 19.4208 0.440622 20.2312 0.0933479C20.6104 -0.0845694 21.0778 -0.00316386 21.3759 0.294932C21.6681 0.587152 21.7492 0.999215 21.5941 1.3997C21.5352 1.56368 21.4684 1.72465 21.394 1.88209C21.505 1.93295 21.6065 2.00193 21.6923 2.0877C21.9516 2.34702 22.0597 2.75288 21.9676 3.1218L21.9577 3.15688C21.6472 4.15758 21.0506 4.97265 20.2617 5.48424C20.13 12.5004 14.8465 18.1634 8.371 18.1634V18.1634ZM1.64589 15.6851C2.95426 16.4253 5.44762 16.8731 8.371 16.8731C11.1816 16.8731 13.8339 15.6665 15.8392 13.4754C17.8609 11.2664 18.9742 8.33293 18.9742 5.21535V5.18027C18.9742 4.89795 19.1296 4.64031 19.3797 4.50771C19.8871 4.23899 20.298 3.78127 20.5652 3.19599C20.2896 3.23946 20.0095 3.12885 19.8378 2.89823C19.6382 2.63018 19.636 2.26814 19.8322 1.99773C19.9381 1.85171 20.0341 1.69981 20.1198 1.5427C19.42 1.8366 18.7555 2.10012 18.1786 2.27518C17.969 2.33863 17.7353 2.31379 17.5438 2.20687C16.5168 1.63468 15.5602 1.29261 14.9835 1.29093C12.8554 1.32349 11.125 3.14614 11.125 5.35601C11.125 5.58445 11.0236 5.79862 10.8472 5.94381C10.6707 6.08883 10.4411 6.1469 10.2168 6.10259C6.71016 5.41173 4.63222 4.37578 2.47136 2.20435C2.16169 2.9464 2.07709 3.69382 2.22026 4.43184C2.36545 5.17943 2.75167 5.92853 3.33728 6.59807C3.55985 6.85219 3.58939 7.21575 3.4108 7.5026C3.23288 7.78844 2.89467 7.92204 2.56955 7.83493C2.31543 7.76679 2.08179 7.67732 1.86023 7.56235C2.31157 8.54274 3.08786 9.44945 4.06372 10.1181C4.34654 10.312 4.46471 10.6734 4.35124 10.997C4.23761 11.3211 3.92021 11.5297 3.57714 11.5042C3.20334 11.4765 2.87218 11.4055 2.56737 11.2859C3.11455 12.4002 3.98886 13.0133 5.33583 13.2476C5.65659 13.3035 5.90634 13.5568 5.95737 13.8779C6.00856 14.199 5.84961 14.5172 5.56209 14.6698C4.41402 15.2784 3.1592 15.6051 1.64589 15.6851V15.6851Z" fill="white"/>
</svg>
