<?xml version="1.0" standalone="no"?>
<!DOCTYPE svg PUBLIC "-//W3C//DTD SVG 20010904//EN"
 "http://www.w3.org/TR/2001/REC-SVG-20010904/DTD/svg10.dtd">
<svg version="1.0" xmlns="http://www.w3.org/2000/svg"
 width="700.000000pt" height="700.000000pt" viewBox="0 0 700.000000 700.000000"
 preserveAspectRatio="xMidYMid meet">
<metadata>
Created by potrace 1.11, written by Peter Selinger 2001-2013
</metadata>
<g transform="translate(0.000000,700.000000) scale(0.100000,-0.100000)"
fill="#000000" stroke="none">
<path d="M1111 4598 c-30 -73 -63 -153 -73 -178 -33 -75 -35 -80 -97 -230 -33
-80 -98 -235 -145 -344 -64 -149 -83 -202 -73 -208 28 -19 209 -70 216 -62 8
8 141 342 227 567 19 50 38 94 41 97 6 6 -2 -57 -16 -120 -5 -25 -12 -61 -15
-80 -3 -19 -14 -84 -25 -145 -11 -60 -23 -126 -26 -145 -4 -19 -13 -71 -20
-115 -8 -44 -15 -85 -15 -91 0 -16 85 -29 230 -38 62 -3 54 -12 127 124 22 41
51 93 63 115 26 46 103 192 169 317 25 48 46 86 48 84 2 -1 -3 -22 -11 -47
-188 -582 -194 -601 -175 -595 8 3 52 8 99 11 47 4 94 9 105 10 11 2 23 4 26
4 4 1 9 9 12 19 3 9 21 71 40 137 20 66 47 161 62 210 52 178 175 619 172 621
-1 1 -54 5 -117 8 -63 4 -133 10 -155 13 -22 3 -48 6 -58 7 -13 1 -34 -29 -78
-114 -97 -185 -221 -410 -226 -410 -4 0 3 58 17 135 5 28 12 70 15 95 4 25 13
81 20 125 16 93 28 172 29 198 1 15 -19 26 -93 53 -52 18 -128 49 -169 69 -41
19 -75 35 -76 35 -1 0 -26 -60 -55 -132z"/>
<path d="M3487 4674 c-1 -2 -24 -4 -50 -5 -26 -2 -51 -5 -56 -9 -6 -3 -11 -39
-13 -80 -3 -74 -4 -75 -30 -78 -23 -3 -28 -9 -29 -30 -1 -15 -2 -45 -4 -67 -3
-51 0 -56 30 -45 31 12 29 30 20 -195 -3 -83 12 -121 53 -129 50 -11 167 14
267 58 l52 24 -3 42 c-2 23 -5 44 -8 47 -2 2 -24 -2 -48 -10 -74 -26 -86 -8
-86 130 l1 83 31 5 c47 8 80 13 89 14 4 1 7 28 7 62 l0 60 -65 -6 -65 -5 0 70
0 71 -45 -2 c-25 -2 -47 -4 -48 -5z"/>
<path d="M3786 4551 c-6 -9 -3 -52 9 -171 2 -25 7 -90 11 -145 3 -55 7 -101 9
-103 2 -2 36 3 76 12 41 8 93 17 117 21 23 4 40 10 38 13 -2 4 -7 30 -10 57
-4 28 -12 82 -18 121 -6 39 -8 79 -5 88 10 26 69 18 82 -11 10 -23 22 -25 155
-25 38 0 39 1 28 35 -16 48 -55 84 -111 103 -61 20 -134 15 -174 -14 l-30 -21
-13 24 c-12 23 -19 25 -86 25 -40 0 -75 -4 -78 -9z"/>
<path d="M4398 4502 c-44 -5 -69 -46 -62 -100 17 -128 140 -212 329 -226 11
-1 42 2 70 6 37 6 55 4 72 -7 30 -20 100 -47 201 -78 l84 -26 -15 22 c-8 12
-35 33 -61 47 -33 18 -65 49 -111 113 -60 80 -72 90 -145 127 -51 26 -80 35
-82 28 -3 -8 -22 -2 -54 18 -89 54 -174 82 -226 76z m243 -124 c47 -26 103
-123 80 -137 -14 -9 -60 0 -99 21 -20 10 -72 102 -72 127 0 18 50 12 91 -11z"/>
<path d="M3035 4448 c-162 -21 -292 -120 -326 -248 -32 -122 30 -174 177 -150
124 22 151 19 138 -14 -3 -9 -25 -26 -48 -37 -45 -22 -136 -37 -136 -23 -1 32
-17 33 -105 6 l-89 -28 -4 -38 c-5 -51 14 -93 47 -104 95 -33 352 57 458 161
101 98 115 243 26 274 -30 11 -55 10 -190 -2 -70 -6 -83 -5 -83 7 0 48 137 86
154 43 4 -11 14 -11 58 1 29 8 66 16 82 19 41 8 43 11 41 42 -3 48 -4 50 -30
67 -36 24 -101 33 -170 24z"/>
<path d="M2345 4318 c-41 -8 -109 -35 -134 -53 -52 -36 -140 -142 -173 -206
-107 -213 -107 -394 -1 -444 104 -49 312 20 424 142 60 65 125 170 135 218 1
6 7 28 12 50 6 22 12 60 13 85 8 169 -93 245 -276 208z m45 -178 c12 -23 10
-47 -20 -180 -11 -50 -30 -106 -43 -125 -41 -64 -120 -82 -133 -31 -6 23 23
160 53 250 29 89 114 140 143 86z"/>
<path d="M6095 3833 c-33 -36 -89 -89 -123 -117 -63 -51 -64 -51 -57 -91 4
-22 9 -53 12 -70 2 -16 12 -73 22 -125 11 -52 29 -152 42 -223 13 -70 27 -126
32 -124 4 1 36 24 71 51 l62 49 3 359 c1 197 1 358 -1 357 -2 0 -30 -30 -63
-66z"/>
<path d="M4237 3873 c-2 -4 -10 -39 -17 -76 -12 -67 -13 -68 -40 -62 -32 7
-37 -1 -46 -79 -6 -53 -6 -53 24 -59 29 -6 30 -7 22 -44 -59 -266 -52 -296 86
-369 60 -32 213 -88 221 -81 7 8 20 108 14 111 -3 2 -19 6 -35 10 -52 13 -86
44 -86 79 0 75 23 207 36 207 7 0 38 -11 68 -24 l54 -24 4 30 c3 17 4 51 4 76
l-1 45 -58 21 c-58 21 -58 21 -53 56 8 55 17 104 21 117 6 19 -208 84 -218 66z"/>
<path d="M3642 3714 c-153 -46 -310 -209 -412 -428 -22 -46 -43 -105 -46 -130
-12 -82 10 -78 301 65 216 105 282 154 326 240 29 57 36 143 16 191 -26 62
-101 87 -185 62z m-48 -130 c21 -8 20 -35 -3 -115 -24 -84 -44 -114 -96 -144
-44 -26 -70 -31 -80 -16 -8 14 52 192 74 218 10 12 33 31 52 42 39 24 33 23
53 15z"/>
<path d="M4722 3498 c-87 -15 -137 -80 -145 -189 -8 -103 34 -205 121 -294 58
-60 72 -71 137 -111 182 -110 320 -95 341 37 l6 35 -99 39 c-54 21 -100 38
-103 37 -3 -1 -6 -10 -8 -22 -5 -28 -46 -36 -88 -16 -44 21 -74 70 -74 123 l0
42 107 -50 c105 -49 205 -91 250 -104 21 -6 22 -4 18 73 -9 172 -94 289 -265
362 -81 34 -149 47 -198 38z m199 -183 c26 -17 49 -58 49 -87 l0 -27 -72 34
c-62 29 -73 37 -70 57 5 44 45 53 93 23z"/>
<path d="M5777 3354 c-3 -4 -46 -17 -94 -29 l-88 -22 4 -134 c1 -74 4 -171 5
-215 3 -88 -5 -121 -29 -130 -28 -11 -65 6 -76 34 -6 15 -12 118 -13 229 -1
111 -5 205 -8 209 -4 3 -31 8 -60 11 -29 3 -72 8 -96 13 -23 4 -44 4 -47 0 -7
-11 -8 -460 -2 -487 30 -125 167 -213 270 -174 13 5 38 23 55 40 l31 31 21
-30 c29 -40 53 -52 109 -53 54 0 137 36 146 64 3 9 5 46 3 81 l-2 65 -28 -16
c-49 -28 -51 -18 -64 314 -3 94 -7 177 -9 184 -2 17 -18 25 -28 15z"/>
<path d="M6128 3090 c-37 -31 -84 -65 -104 -76 l-36 -19 6 -124 c4 -69 8 -127
11 -129 6 -6 132 77 179 119 34 29 36 34 32 78 -3 25 -8 82 -11 126 -4 44 -7
80 -8 81 -1 1 -32 -24 -69 -56z"/>
</g>
</svg>
